<mxfile host="Electron" agent="Mozilla/5.0 (Macintosh; Intel Mac OS X 10_15_7) AppleWebKit/537.36 (KHTML, like Gecko) draw.io/24.7.5 Chrome/126.0.6478.183 Electron/31.3.0 Safari/537.36" version="24.7.5">
  <diagram name="Page-1" id="ovgVRxOwjh_6M58mtc89">
    <mxGraphModel dx="954" dy="727" grid="1" gridSize="10" guides="1" tooltips="1" connect="1" arrows="1" fold="1" page="1" pageScale="1" pageWidth="827" pageHeight="1169" math="0" shadow="0">
      <root>
        <mxCell id="0" />
        <mxCell id="1" parent="0" />
        <mxCell id="1tTKvkxvreCpFepQghNy-6" value="" style="edgeStyle=orthogonalEdgeStyle;rounded=0;orthogonalLoop=1;jettySize=auto;html=1;" edge="1" parent="1" source="1tTKvkxvreCpFepQghNy-2" target="1tTKvkxvreCpFepQghNy-5">
          <mxGeometry relative="1" as="geometry" />
        </mxCell>
        <mxCell id="1tTKvkxvreCpFepQghNy-2" value="запуск приложения" style="rounded=1;whiteSpace=wrap;html=1;" vertex="1" parent="1">
          <mxGeometry x="15" y="38" width="130" height="40" as="geometry" />
        </mxCell>
        <mxCell id="1tTKvkxvreCpFepQghNy-3" value="Пользователь" style="text;html=1;align=center;verticalAlign=middle;resizable=0;points=[];autosize=1;strokeColor=none;fillColor=none;" vertex="1" parent="1">
          <mxGeometry x="30" y="8" width="100" height="30" as="geometry" />
        </mxCell>
        <mxCell id="1tTKvkxvreCpFepQghNy-21" value="" style="edgeStyle=orthogonalEdgeStyle;rounded=0;orthogonalLoop=1;jettySize=auto;html=1;" edge="1" parent="1" source="1tTKvkxvreCpFepQghNy-5" target="1tTKvkxvreCpFepQghNy-18">
          <mxGeometry relative="1" as="geometry" />
        </mxCell>
        <mxCell id="1tTKvkxvreCpFepQghNy-5" value="Чтение документа (словаря)" style="rounded=1;whiteSpace=wrap;html=1;" vertex="1" parent="1">
          <mxGeometry x="5" y="100" width="150" height="40" as="geometry" />
        </mxCell>
        <mxCell id="1tTKvkxvreCpFepQghNy-10" value="" style="edgeStyle=orthogonalEdgeStyle;rounded=0;orthogonalLoop=1;jettySize=auto;html=1;" edge="1" parent="1" source="1tTKvkxvreCpFepQghNy-7" target="1tTKvkxvreCpFepQghNy-9">
          <mxGeometry relative="1" as="geometry" />
        </mxCell>
        <mxCell id="1tTKvkxvreCpFepQghNy-7" value="SplitIntoWords(const string&amp;amp; words), запись слов в вектор" style="whiteSpace=wrap;html=1;rounded=1;" vertex="1" parent="1">
          <mxGeometry x="20" y="320" width="120" height="60" as="geometry" />
        </mxCell>
        <mxCell id="1tTKvkxvreCpFepQghNy-12" value="" style="edgeStyle=orthogonalEdgeStyle;rounded=0;orthogonalLoop=1;jettySize=auto;html=1;" edge="1" parent="1" source="1tTKvkxvreCpFepQghNy-9" target="1tTKvkxvreCpFepQghNy-11">
          <mxGeometry relative="1" as="geometry" />
        </mxCell>
        <mxCell id="1tTKvkxvreCpFepQghNy-9" value="Выбор случайного слова из вектора по индексу" style="whiteSpace=wrap;html=1;rounded=1;" vertex="1" parent="1">
          <mxGeometry x="20" y="410" width="120" height="60" as="geometry" />
        </mxCell>
        <mxCell id="1tTKvkxvreCpFepQghNy-29" value="" style="edgeStyle=orthogonalEdgeStyle;rounded=0;orthogonalLoop=1;jettySize=auto;html=1;" edge="1" parent="1" source="1tTKvkxvreCpFepQghNy-11" target="1tTKvkxvreCpFepQghNy-28">
          <mxGeometry relative="1" as="geometry" />
        </mxCell>
        <mxCell id="1tTKvkxvreCpFepQghNy-11" value="Добавление слова в secret word" style="whiteSpace=wrap;html=1;rounded=1;" vertex="1" parent="1">
          <mxGeometry x="20" y="490" width="120" height="60" as="geometry" />
        </mxCell>
        <mxCell id="1tTKvkxvreCpFepQghNy-31" style="edgeStyle=orthogonalEdgeStyle;rounded=0;orthogonalLoop=1;jettySize=auto;html=1;exitX=0.5;exitY=1;exitDx=0;exitDy=0;" edge="1" parent="1" source="1tTKvkxvreCpFepQghNy-14" target="1tTKvkxvreCpFepQghNy-25">
          <mxGeometry relative="1" as="geometry" />
        </mxCell>
        <mxCell id="1tTKvkxvreCpFepQghNy-14" value="Предлагаем пользователю ввести букву" style="whiteSpace=wrap;html=1;rounded=1;" vertex="1" parent="1">
          <mxGeometry x="290" y="28" width="120" height="60" as="geometry" />
        </mxCell>
        <mxCell id="1tTKvkxvreCpFepQghNy-19" value="" style="edgeStyle=orthogonalEdgeStyle;rounded=0;orthogonalLoop=1;jettySize=auto;html=1;" edge="1" parent="1" source="1tTKvkxvreCpFepQghNy-18" target="1tTKvkxvreCpFepQghNy-7">
          <mxGeometry relative="1" as="geometry" />
        </mxCell>
        <mxCell id="1tTKvkxvreCpFepQghNy-22" style="edgeStyle=orthogonalEdgeStyle;rounded=0;orthogonalLoop=1;jettySize=auto;html=1;exitX=1;exitY=0.5;exitDx=0;exitDy=0;entryX=1;entryY=0.5;entryDx=0;entryDy=0;" edge="1" parent="1" source="1tTKvkxvreCpFepQghNy-18" target="1tTKvkxvreCpFepQghNy-5">
          <mxGeometry relative="1" as="geometry">
            <Array as="points">
              <mxPoint x="180" y="230" />
              <mxPoint x="180" y="120" />
            </Array>
          </mxGeometry>
        </mxCell>
        <mxCell id="1tTKvkxvreCpFepQghNy-18" value="Открыт и читаем" style="rhombus;whiteSpace=wrap;html=1;" vertex="1" parent="1">
          <mxGeometry x="15" y="190" width="130" height="80" as="geometry" />
        </mxCell>
        <mxCell id="1tTKvkxvreCpFepQghNy-23" value="Нет" style="text;html=1;align=center;verticalAlign=middle;resizable=0;points=[];autosize=1;strokeColor=none;fillColor=none;" vertex="1" parent="1">
          <mxGeometry x="160" y="230" width="40" height="30" as="geometry" />
        </mxCell>
        <mxCell id="1tTKvkxvreCpFepQghNy-24" value="Да" style="text;html=1;align=center;verticalAlign=middle;resizable=0;points=[];autosize=1;strokeColor=none;fillColor=none;" vertex="1" parent="1">
          <mxGeometry x="80" y="290" width="40" height="30" as="geometry" />
        </mxCell>
        <mxCell id="1tTKvkxvreCpFepQghNy-33" value="" style="edgeStyle=orthogonalEdgeStyle;rounded=0;orthogonalLoop=1;jettySize=auto;html=1;" edge="1" parent="1" source="1tTKvkxvreCpFepQghNy-25" target="1tTKvkxvreCpFepQghNy-32">
          <mxGeometry relative="1" as="geometry" />
        </mxCell>
        <mxCell id="1tTKvkxvreCpFepQghNy-25" value="Проверка введенной буквы на валидность" style="whiteSpace=wrap;html=1;rounded=1;" vertex="1" parent="1">
          <mxGeometry x="290" y="110" width="120" height="60" as="geometry" />
        </mxCell>
        <mxCell id="1tTKvkxvreCpFepQghNy-30" style="edgeStyle=orthogonalEdgeStyle;rounded=0;orthogonalLoop=1;jettySize=auto;html=1;exitX=1;exitY=0.5;exitDx=0;exitDy=0;entryX=0;entryY=0.5;entryDx=0;entryDy=0;" edge="1" parent="1" source="1tTKvkxvreCpFepQghNy-28" target="1tTKvkxvreCpFepQghNy-14">
          <mxGeometry relative="1" as="geometry" />
        </mxCell>
        <mxCell id="1tTKvkxvreCpFepQghNy-28" value="Создание current_word из secret_word с использованием символа &quot;_&quot;" style="whiteSpace=wrap;html=1;rounded=1;" vertex="1" parent="1">
          <mxGeometry x="20" y="585" width="120" height="90" as="geometry" />
        </mxCell>
        <mxCell id="1tTKvkxvreCpFepQghNy-35" value="" style="edgeStyle=orthogonalEdgeStyle;rounded=0;orthogonalLoop=1;jettySize=auto;html=1;" edge="1" parent="1" source="1tTKvkxvreCpFepQghNy-32" target="1tTKvkxvreCpFepQghNy-34">
          <mxGeometry relative="1" as="geometry" />
        </mxCell>
        <mxCell id="1tTKvkxvreCpFepQghNy-44" value="" style="edgeStyle=orthogonalEdgeStyle;rounded=0;orthogonalLoop=1;jettySize=auto;html=1;" edge="1" parent="1" source="1tTKvkxvreCpFepQghNy-32" target="1tTKvkxvreCpFepQghNy-38">
          <mxGeometry relative="1" as="geometry" />
        </mxCell>
        <mxCell id="1tTKvkxvreCpFepQghNy-32" value="Есть ли такая буква в secret_word?" style="rhombus;whiteSpace=wrap;html=1;rounded=1;" vertex="1" parent="1">
          <mxGeometry x="270" y="200" width="160" height="90" as="geometry" />
        </mxCell>
        <mxCell id="1tTKvkxvreCpFepQghNy-52" value="" style="edgeStyle=orthogonalEdgeStyle;rounded=0;orthogonalLoop=1;jettySize=auto;html=1;" edge="1" parent="1" source="1tTKvkxvreCpFepQghNy-34" target="1tTKvkxvreCpFepQghNy-51">
          <mxGeometry relative="1" as="geometry" />
        </mxCell>
        <mxCell id="1tTKvkxvreCpFepQghNy-34" value="Изменение current_word, замена &quot;_&quot; на разгаданную букву" style="whiteSpace=wrap;html=1;rounded=1;" vertex="1" parent="1">
          <mxGeometry x="280" y="320" width="140" height="60" as="geometry" />
        </mxCell>
        <mxCell id="1tTKvkxvreCpFepQghNy-36" value="Да" style="text;html=1;align=center;verticalAlign=middle;resizable=0;points=[];autosize=1;strokeColor=none;fillColor=none;" vertex="1" parent="1">
          <mxGeometry x="350" y="290" width="40" height="30" as="geometry" />
        </mxCell>
        <mxCell id="1tTKvkxvreCpFepQghNy-46" value="" style="edgeStyle=orthogonalEdgeStyle;rounded=0;orthogonalLoop=1;jettySize=auto;html=1;" edge="1" parent="1" source="1tTKvkxvreCpFepQghNy-38" target="1tTKvkxvreCpFepQghNy-45">
          <mxGeometry relative="1" as="geometry" />
        </mxCell>
        <mxCell id="1tTKvkxvreCpFepQghNy-38" value="Нет" style="text;html=1;align=center;verticalAlign=middle;resizable=0;points=[];autosize=1;strokeColor=none;fillColor=none;" vertex="1" parent="1">
          <mxGeometry x="454" y="230" width="40" height="30" as="geometry" />
        </mxCell>
        <mxCell id="1tTKvkxvreCpFepQghNy-42" value="" style="endArrow=none;dashed=1;html=1;rounded=0;exitX=0.5;exitY=0;exitDx=0;exitDy=0;edgeStyle=orthogonalEdgeStyle;entryX=0.5;entryY=0;entryDx=0;entryDy=0;" edge="1" parent="1" source="1tTKvkxvreCpFepQghNy-14" target="1tTKvkxvreCpFepQghNy-43">
          <mxGeometry width="50" height="50" relative="1" as="geometry">
            <mxPoint x="350" y="8" as="sourcePoint" />
            <mxPoint x="680" y="40" as="targetPoint" />
            <Array as="points">
              <mxPoint x="350" y="18" />
              <mxPoint x="680" y="18" />
            </Array>
          </mxGeometry>
        </mxCell>
        <mxCell id="1tTKvkxvreCpFepQghNy-43" value="Отрисовка интерфэйса на основе кол-ва оставшихся попыток" style="rounded=1;whiteSpace=wrap;html=1;" vertex="1" parent="1">
          <mxGeometry x="620" y="28" width="160" height="102" as="geometry" />
        </mxCell>
        <mxCell id="1tTKvkxvreCpFepQghNy-47" style="edgeStyle=orthogonalEdgeStyle;rounded=0;orthogonalLoop=1;jettySize=auto;html=1;exitX=0.5;exitY=0;exitDx=0;exitDy=0;entryX=1;entryY=0.5;entryDx=0;entryDy=0;" edge="1" parent="1" source="1tTKvkxvreCpFepQghNy-45" target="1tTKvkxvreCpFepQghNy-14">
          <mxGeometry relative="1" as="geometry" />
        </mxCell>
        <mxCell id="1tTKvkxvreCpFepQghNy-45" value="MAX_ATTEMPS - 1" style="rounded=1;whiteSpace=wrap;html=1;" vertex="1" parent="1">
          <mxGeometry x="414" y="130" width="120" height="40" as="geometry" />
        </mxCell>
        <mxCell id="1tTKvkxvreCpFepQghNy-54" value="" style="edgeStyle=orthogonalEdgeStyle;rounded=0;orthogonalLoop=1;jettySize=auto;html=1;" edge="1" parent="1" source="1tTKvkxvreCpFepQghNy-51" target="1tTKvkxvreCpFepQghNy-53">
          <mxGeometry relative="1" as="geometry" />
        </mxCell>
        <mxCell id="1tTKvkxvreCpFepQghNy-56" style="edgeStyle=orthogonalEdgeStyle;rounded=0;orthogonalLoop=1;jettySize=auto;html=1;exitX=0.5;exitY=0;exitDx=0;exitDy=0;entryX=1;entryY=0.5;entryDx=0;entryDy=0;" edge="1" parent="1" source="1tTKvkxvreCpFepQghNy-51" target="1tTKvkxvreCpFepQghNy-14">
          <mxGeometry relative="1" as="geometry" />
        </mxCell>
        <mxCell id="1tTKvkxvreCpFepQghNy-51" value="Проверка, отгаданы ли все буквы секретного слова" style="rhombus;whiteSpace=wrap;html=1;rounded=1;" vertex="1" parent="1">
          <mxGeometry x="480" y="305" width="180" height="90" as="geometry" />
        </mxCell>
        <mxCell id="1tTKvkxvreCpFepQghNy-53" value="Вывод сообщения о победе" style="whiteSpace=wrap;html=1;rounded=1;" vertex="1" parent="1">
          <mxGeometry x="510" y="490" width="120" height="60" as="geometry" />
        </mxCell>
        <mxCell id="1tTKvkxvreCpFepQghNy-55" value="Да" style="text;html=1;align=center;verticalAlign=middle;resizable=0;points=[];autosize=1;strokeColor=none;fillColor=none;" vertex="1" parent="1">
          <mxGeometry x="570" y="418" width="40" height="30" as="geometry" />
        </mxCell>
        <mxCell id="1tTKvkxvreCpFepQghNy-57" value="Нет" style="text;html=1;align=center;verticalAlign=middle;resizable=0;points=[];autosize=1;strokeColor=none;fillColor=none;" vertex="1" parent="1">
          <mxGeometry x="580" y="230" width="40" height="30" as="geometry" />
        </mxCell>
      </root>
    </mxGraphModel>
  </diagram>
</mxfile>
